<mxfile host="app.diagrams.net" modified="2024-03-27T04:45:46.604Z" agent="Mozilla/5.0 (Macintosh; Intel Mac OS X 10_15_7) AppleWebKit/537.36 (KHTML, like Gecko) Chrome/123.0.0.0 Safari/537.36" etag="A7YulBROjITAUOSYMT9r" version="24.1.0" type="device">
  <diagram name="Page-1" id="3LBCzExcwa3JechH1sWF">
    <mxGraphModel dx="1123" dy="1778" grid="0" gridSize="10" guides="1" tooltips="1" connect="1" arrows="1" fold="1" page="0" pageScale="1" pageWidth="850" pageHeight="1100" math="0" shadow="0">
      <root>
        <mxCell id="0" />
        <mxCell id="1" parent="0" />
        <mxCell id="Jo8jzJtcxEbkA8CnlQCR-1" value="studends" style="shape=table;startSize=30;container=1;collapsible=1;childLayout=tableLayout;fixedRows=1;rowLines=0;fontStyle=1;align=center;resizeLast=1;html=1;" parent="1" vertex="1">
          <mxGeometry x="-68" y="-599" width="180" height="180" as="geometry" />
        </mxCell>
        <mxCell id="Jo8jzJtcxEbkA8CnlQCR-2" value="" style="shape=tableRow;horizontal=0;startSize=0;swimlaneHead=0;swimlaneBody=0;fillColor=none;collapsible=0;dropTarget=0;points=[[0,0.5],[1,0.5]];portConstraint=eastwest;top=0;left=0;right=0;bottom=1;" parent="Jo8jzJtcxEbkA8CnlQCR-1" vertex="1">
          <mxGeometry y="30" width="180" height="30" as="geometry" />
        </mxCell>
        <mxCell id="Jo8jzJtcxEbkA8CnlQCR-3" value="PK" style="shape=partialRectangle;connectable=0;fillColor=none;top=0;left=0;bottom=0;right=0;fontStyle=1;overflow=hidden;whiteSpace=wrap;html=1;" parent="Jo8jzJtcxEbkA8CnlQCR-2" vertex="1">
          <mxGeometry width="30" height="30" as="geometry">
            <mxRectangle width="30" height="30" as="alternateBounds" />
          </mxGeometry>
        </mxCell>
        <mxCell id="Jo8jzJtcxEbkA8CnlQCR-4" value="student_id" style="shape=partialRectangle;connectable=0;fillColor=none;top=0;left=0;bottom=0;right=0;align=left;spacingLeft=6;fontStyle=5;overflow=hidden;whiteSpace=wrap;html=1;" parent="Jo8jzJtcxEbkA8CnlQCR-2" vertex="1">
          <mxGeometry x="30" width="150" height="30" as="geometry">
            <mxRectangle width="150" height="30" as="alternateBounds" />
          </mxGeometry>
        </mxCell>
        <mxCell id="Jo8jzJtcxEbkA8CnlQCR-5" value="" style="shape=tableRow;horizontal=0;startSize=0;swimlaneHead=0;swimlaneBody=0;fillColor=none;collapsible=0;dropTarget=0;points=[[0,0.5],[1,0.5]];portConstraint=eastwest;top=0;left=0;right=0;bottom=0;" parent="Jo8jzJtcxEbkA8CnlQCR-1" vertex="1">
          <mxGeometry y="60" width="180" height="30" as="geometry" />
        </mxCell>
        <mxCell id="Jo8jzJtcxEbkA8CnlQCR-6" value="" style="shape=partialRectangle;connectable=0;fillColor=none;top=0;left=0;bottom=0;right=0;editable=1;overflow=hidden;whiteSpace=wrap;html=1;" parent="Jo8jzJtcxEbkA8CnlQCR-5" vertex="1">
          <mxGeometry width="30" height="30" as="geometry">
            <mxRectangle width="30" height="30" as="alternateBounds" />
          </mxGeometry>
        </mxCell>
        <mxCell id="Jo8jzJtcxEbkA8CnlQCR-7" value="&lt;b&gt;student_firstname&lt;/b&gt;" style="shape=partialRectangle;connectable=0;fillColor=none;top=0;left=0;bottom=0;right=0;align=left;spacingLeft=6;overflow=hidden;whiteSpace=wrap;html=1;" parent="Jo8jzJtcxEbkA8CnlQCR-5" vertex="1">
          <mxGeometry x="30" width="150" height="30" as="geometry">
            <mxRectangle width="150" height="30" as="alternateBounds" />
          </mxGeometry>
        </mxCell>
        <mxCell id="Jo8jzJtcxEbkA8CnlQCR-8" value="" style="shape=tableRow;horizontal=0;startSize=0;swimlaneHead=0;swimlaneBody=0;fillColor=none;collapsible=0;dropTarget=0;points=[[0,0.5],[1,0.5]];portConstraint=eastwest;top=0;left=0;right=0;bottom=0;" parent="Jo8jzJtcxEbkA8CnlQCR-1" vertex="1">
          <mxGeometry y="90" width="180" height="30" as="geometry" />
        </mxCell>
        <mxCell id="Jo8jzJtcxEbkA8CnlQCR-9" value="" style="shape=partialRectangle;connectable=0;fillColor=none;top=0;left=0;bottom=0;right=0;editable=1;overflow=hidden;whiteSpace=wrap;html=1;" parent="Jo8jzJtcxEbkA8CnlQCR-8" vertex="1">
          <mxGeometry width="30" height="30" as="geometry">
            <mxRectangle width="30" height="30" as="alternateBounds" />
          </mxGeometry>
        </mxCell>
        <mxCell id="Jo8jzJtcxEbkA8CnlQCR-10" value="&lt;b&gt;student_lastname&lt;/b&gt;" style="shape=partialRectangle;connectable=0;fillColor=none;top=0;left=0;bottom=0;right=0;align=left;spacingLeft=6;overflow=hidden;whiteSpace=wrap;html=1;" parent="Jo8jzJtcxEbkA8CnlQCR-8" vertex="1">
          <mxGeometry x="30" width="150" height="30" as="geometry">
            <mxRectangle width="150" height="30" as="alternateBounds" />
          </mxGeometry>
        </mxCell>
        <mxCell id="Jo8jzJtcxEbkA8CnlQCR-14" value="" style="shape=tableRow;horizontal=0;startSize=0;swimlaneHead=0;swimlaneBody=0;fillColor=none;collapsible=0;dropTarget=0;points=[[0,0.5],[1,0.5]];portConstraint=eastwest;top=0;left=0;right=0;bottom=0;" parent="Jo8jzJtcxEbkA8CnlQCR-1" vertex="1">
          <mxGeometry y="120" width="180" height="30" as="geometry" />
        </mxCell>
        <mxCell id="Jo8jzJtcxEbkA8CnlQCR-15" value="U1" style="shape=partialRectangle;connectable=0;fillColor=none;top=0;left=0;bottom=0;right=0;editable=1;overflow=hidden;whiteSpace=wrap;html=1;" parent="Jo8jzJtcxEbkA8CnlQCR-14" vertex="1">
          <mxGeometry width="30" height="30" as="geometry">
            <mxRectangle width="30" height="30" as="alternateBounds" />
          </mxGeometry>
        </mxCell>
        <mxCell id="Jo8jzJtcxEbkA8CnlQCR-16" value="&lt;b&gt;student_email&lt;/b&gt;" style="shape=partialRectangle;connectable=0;fillColor=none;top=0;left=0;bottom=0;right=0;align=left;spacingLeft=6;overflow=hidden;whiteSpace=wrap;html=1;" parent="Jo8jzJtcxEbkA8CnlQCR-14" vertex="1">
          <mxGeometry x="30" width="150" height="30" as="geometry">
            <mxRectangle width="150" height="30" as="alternateBounds" />
          </mxGeometry>
        </mxCell>
        <mxCell id="Jo8jzJtcxEbkA8CnlQCR-20" value="" style="shape=tableRow;horizontal=0;startSize=0;swimlaneHead=0;swimlaneBody=0;fillColor=none;collapsible=0;dropTarget=0;points=[[0,0.5],[1,0.5]];portConstraint=eastwest;top=0;left=0;right=0;bottom=0;" parent="Jo8jzJtcxEbkA8CnlQCR-1" vertex="1">
          <mxGeometry y="150" width="180" height="30" as="geometry" />
        </mxCell>
        <mxCell id="Jo8jzJtcxEbkA8CnlQCR-21" value="U2" style="shape=partialRectangle;connectable=0;fillColor=none;top=0;left=0;bottom=0;right=0;editable=1;overflow=hidden;whiteSpace=wrap;html=1;" parent="Jo8jzJtcxEbkA8CnlQCR-20" vertex="1">
          <mxGeometry width="30" height="30" as="geometry">
            <mxRectangle width="30" height="30" as="alternateBounds" />
          </mxGeometry>
        </mxCell>
        <mxCell id="Jo8jzJtcxEbkA8CnlQCR-22" value="&lt;b&gt;student_mobile&lt;/b&gt;" style="shape=partialRectangle;connectable=0;fillColor=none;top=0;left=0;bottom=0;right=0;align=left;spacingLeft=6;overflow=hidden;whiteSpace=wrap;html=1;" parent="Jo8jzJtcxEbkA8CnlQCR-20" vertex="1">
          <mxGeometry x="30" width="150" height="30" as="geometry">
            <mxRectangle width="150" height="30" as="alternateBounds" />
          </mxGeometry>
        </mxCell>
        <mxCell id="Jo8jzJtcxEbkA8CnlQCR-23" value="feedbacks" style="shape=table;startSize=30;container=1;collapsible=1;childLayout=tableLayout;fixedRows=1;rowLines=0;fontStyle=1;align=center;resizeLast=1;html=1;" parent="1" vertex="1">
          <mxGeometry x="238" y="-661" width="211" height="180" as="geometry" />
        </mxCell>
        <mxCell id="Jo8jzJtcxEbkA8CnlQCR-24" value="" style="shape=tableRow;horizontal=0;startSize=0;swimlaneHead=0;swimlaneBody=0;fillColor=none;collapsible=0;dropTarget=0;points=[[0,0.5],[1,0.5]];portConstraint=eastwest;top=0;left=0;right=0;bottom=1;" parent="Jo8jzJtcxEbkA8CnlQCR-23" vertex="1">
          <mxGeometry y="30" width="211" height="30" as="geometry" />
        </mxCell>
        <mxCell id="Jo8jzJtcxEbkA8CnlQCR-25" value="PK" style="shape=partialRectangle;connectable=0;fillColor=none;top=0;left=0;bottom=0;right=0;fontStyle=1;overflow=hidden;whiteSpace=wrap;html=1;" parent="Jo8jzJtcxEbkA8CnlQCR-24" vertex="1">
          <mxGeometry width="46.75" height="30" as="geometry">
            <mxRectangle width="46.75" height="30" as="alternateBounds" />
          </mxGeometry>
        </mxCell>
        <mxCell id="Jo8jzJtcxEbkA8CnlQCR-26" value="feedback_id" style="shape=partialRectangle;connectable=0;fillColor=none;top=0;left=0;bottom=0;right=0;align=left;spacingLeft=6;fontStyle=5;overflow=hidden;whiteSpace=wrap;html=1;" parent="Jo8jzJtcxEbkA8CnlQCR-24" vertex="1">
          <mxGeometry x="46.75" width="164.25" height="30" as="geometry">
            <mxRectangle width="164.25" height="30" as="alternateBounds" />
          </mxGeometry>
        </mxCell>
        <mxCell id="Jo8jzJtcxEbkA8CnlQCR-27" value="" style="shape=tableRow;horizontal=0;startSize=0;swimlaneHead=0;swimlaneBody=0;fillColor=none;collapsible=0;dropTarget=0;points=[[0,0.5],[1,0.5]];portConstraint=eastwest;top=0;left=0;right=0;bottom=0;" parent="Jo8jzJtcxEbkA8CnlQCR-23" vertex="1">
          <mxGeometry y="60" width="211" height="30" as="geometry" />
        </mxCell>
        <mxCell id="Jo8jzJtcxEbkA8CnlQCR-28" value="" style="shape=partialRectangle;connectable=0;fillColor=none;top=0;left=0;bottom=0;right=0;editable=1;overflow=hidden;whiteSpace=wrap;html=1;" parent="Jo8jzJtcxEbkA8CnlQCR-27" vertex="1">
          <mxGeometry width="46.75" height="30" as="geometry">
            <mxRectangle width="46.75" height="30" as="alternateBounds" />
          </mxGeometry>
        </mxCell>
        <mxCell id="Jo8jzJtcxEbkA8CnlQCR-29" value="&lt;b&gt;feedback_rating&lt;/b&gt;" style="shape=partialRectangle;connectable=0;fillColor=none;top=0;left=0;bottom=0;right=0;align=left;spacingLeft=6;overflow=hidden;whiteSpace=wrap;html=1;" parent="Jo8jzJtcxEbkA8CnlQCR-27" vertex="1">
          <mxGeometry x="46.75" width="164.25" height="30" as="geometry">
            <mxRectangle width="164.25" height="30" as="alternateBounds" />
          </mxGeometry>
        </mxCell>
        <mxCell id="Jo8jzJtcxEbkA8CnlQCR-30" value="" style="shape=tableRow;horizontal=0;startSize=0;swimlaneHead=0;swimlaneBody=0;fillColor=none;collapsible=0;dropTarget=0;points=[[0,0.5],[1,0.5]];portConstraint=eastwest;top=0;left=0;right=0;bottom=0;" parent="Jo8jzJtcxEbkA8CnlQCR-23" vertex="1">
          <mxGeometry y="90" width="211" height="30" as="geometry" />
        </mxCell>
        <mxCell id="Jo8jzJtcxEbkA8CnlQCR-31" value="" style="shape=partialRectangle;connectable=0;fillColor=none;top=0;left=0;bottom=0;right=0;editable=1;overflow=hidden;whiteSpace=wrap;html=1;" parent="Jo8jzJtcxEbkA8CnlQCR-30" vertex="1">
          <mxGeometry width="46.75" height="30" as="geometry">
            <mxRectangle width="46.75" height="30" as="alternateBounds" />
          </mxGeometry>
        </mxCell>
        <mxCell id="Jo8jzJtcxEbkA8CnlQCR-32" value="feedback_comments" style="shape=partialRectangle;connectable=0;fillColor=none;top=0;left=0;bottom=0;right=0;align=left;spacingLeft=6;overflow=hidden;whiteSpace=wrap;html=1;" parent="Jo8jzJtcxEbkA8CnlQCR-30" vertex="1">
          <mxGeometry x="46.75" width="164.25" height="30" as="geometry">
            <mxRectangle width="164.25" height="30" as="alternateBounds" />
          </mxGeometry>
        </mxCell>
        <mxCell id="Jo8jzJtcxEbkA8CnlQCR-33" value="" style="shape=tableRow;horizontal=0;startSize=0;swimlaneHead=0;swimlaneBody=0;fillColor=none;collapsible=0;dropTarget=0;points=[[0,0.5],[1,0.5]];portConstraint=eastwest;top=0;left=0;right=0;bottom=0;" parent="Jo8jzJtcxEbkA8CnlQCR-23" vertex="1">
          <mxGeometry y="120" width="211" height="30" as="geometry" />
        </mxCell>
        <mxCell id="Jo8jzJtcxEbkA8CnlQCR-34" value="FK1,U1" style="shape=partialRectangle;connectable=0;fillColor=none;top=0;left=0;bottom=0;right=0;editable=1;overflow=hidden;whiteSpace=wrap;html=1;" parent="Jo8jzJtcxEbkA8CnlQCR-33" vertex="1">
          <mxGeometry width="46.75" height="30" as="geometry">
            <mxRectangle width="46.75" height="30" as="alternateBounds" />
          </mxGeometry>
        </mxCell>
        <mxCell id="Jo8jzJtcxEbkA8CnlQCR-35" value="&lt;b&gt;feedback_student_id&lt;/b&gt;" style="shape=partialRectangle;connectable=0;fillColor=none;top=0;left=0;bottom=0;right=0;align=left;spacingLeft=6;overflow=hidden;whiteSpace=wrap;html=1;" parent="Jo8jzJtcxEbkA8CnlQCR-33" vertex="1">
          <mxGeometry x="46.75" width="164.25" height="30" as="geometry">
            <mxRectangle width="164.25" height="30" as="alternateBounds" />
          </mxGeometry>
        </mxCell>
        <mxCell id="Jo8jzJtcxEbkA8CnlQCR-36" value="" style="shape=tableRow;horizontal=0;startSize=0;swimlaneHead=0;swimlaneBody=0;fillColor=none;collapsible=0;dropTarget=0;points=[[0,0.5],[1,0.5]];portConstraint=eastwest;top=0;left=0;right=0;bottom=0;" parent="Jo8jzJtcxEbkA8CnlQCR-23" vertex="1">
          <mxGeometry y="150" width="211" height="30" as="geometry" />
        </mxCell>
        <mxCell id="Jo8jzJtcxEbkA8CnlQCR-37" value="FK2,U1" style="shape=partialRectangle;connectable=0;fillColor=none;top=0;left=0;bottom=0;right=0;editable=1;overflow=hidden;whiteSpace=wrap;html=1;" parent="Jo8jzJtcxEbkA8CnlQCR-36" vertex="1">
          <mxGeometry width="46.75" height="30" as="geometry">
            <mxRectangle width="46.75" height="30" as="alternateBounds" />
          </mxGeometry>
        </mxCell>
        <mxCell id="Jo8jzJtcxEbkA8CnlQCR-38" value="&lt;b&gt;feedback_event_id&lt;/b&gt;" style="shape=partialRectangle;connectable=0;fillColor=none;top=0;left=0;bottom=0;right=0;align=left;spacingLeft=6;overflow=hidden;whiteSpace=wrap;html=1;" parent="Jo8jzJtcxEbkA8CnlQCR-36" vertex="1">
          <mxGeometry x="46.75" width="164.25" height="30" as="geometry">
            <mxRectangle width="164.25" height="30" as="alternateBounds" />
          </mxGeometry>
        </mxCell>
        <mxCell id="Jo8jzJtcxEbkA8CnlQCR-39" value="events" style="shape=table;startSize=30;container=1;collapsible=1;childLayout=tableLayout;fixedRows=1;rowLines=0;fontStyle=1;align=center;resizeLast=1;html=1;" parent="1" vertex="1">
          <mxGeometry x="420" y="-455" width="180" height="180" as="geometry" />
        </mxCell>
        <mxCell id="Jo8jzJtcxEbkA8CnlQCR-40" value="" style="shape=tableRow;horizontal=0;startSize=0;swimlaneHead=0;swimlaneBody=0;fillColor=none;collapsible=0;dropTarget=0;points=[[0,0.5],[1,0.5]];portConstraint=eastwest;top=0;left=0;right=0;bottom=1;" parent="Jo8jzJtcxEbkA8CnlQCR-39" vertex="1">
          <mxGeometry y="30" width="180" height="30" as="geometry" />
        </mxCell>
        <mxCell id="Jo8jzJtcxEbkA8CnlQCR-41" value="PK" style="shape=partialRectangle;connectable=0;fillColor=none;top=0;left=0;bottom=0;right=0;fontStyle=1;overflow=hidden;whiteSpace=wrap;html=1;" parent="Jo8jzJtcxEbkA8CnlQCR-40" vertex="1">
          <mxGeometry width="30" height="30" as="geometry">
            <mxRectangle width="30" height="30" as="alternateBounds" />
          </mxGeometry>
        </mxCell>
        <mxCell id="Jo8jzJtcxEbkA8CnlQCR-42" value="event_id" style="shape=partialRectangle;connectable=0;fillColor=none;top=0;left=0;bottom=0;right=0;align=left;spacingLeft=6;fontStyle=5;overflow=hidden;whiteSpace=wrap;html=1;" parent="Jo8jzJtcxEbkA8CnlQCR-40" vertex="1">
          <mxGeometry x="30" width="150" height="30" as="geometry">
            <mxRectangle width="150" height="30" as="alternateBounds" />
          </mxGeometry>
        </mxCell>
        <mxCell id="Jo8jzJtcxEbkA8CnlQCR-43" value="" style="shape=tableRow;horizontal=0;startSize=0;swimlaneHead=0;swimlaneBody=0;fillColor=none;collapsible=0;dropTarget=0;points=[[0,0.5],[1,0.5]];portConstraint=eastwest;top=0;left=0;right=0;bottom=0;" parent="Jo8jzJtcxEbkA8CnlQCR-39" vertex="1">
          <mxGeometry y="60" width="180" height="30" as="geometry" />
        </mxCell>
        <mxCell id="Jo8jzJtcxEbkA8CnlQCR-44" value="U1" style="shape=partialRectangle;connectable=0;fillColor=none;top=0;left=0;bottom=0;right=0;editable=1;overflow=hidden;whiteSpace=wrap;html=1;" parent="Jo8jzJtcxEbkA8CnlQCR-43" vertex="1">
          <mxGeometry width="30" height="30" as="geometry">
            <mxRectangle width="30" height="30" as="alternateBounds" />
          </mxGeometry>
        </mxCell>
        <mxCell id="Jo8jzJtcxEbkA8CnlQCR-45" value="&lt;b&gt;event_title&lt;/b&gt;" style="shape=partialRectangle;connectable=0;fillColor=none;top=0;left=0;bottom=0;right=0;align=left;spacingLeft=6;overflow=hidden;whiteSpace=wrap;html=1;" parent="Jo8jzJtcxEbkA8CnlQCR-43" vertex="1">
          <mxGeometry x="30" width="150" height="30" as="geometry">
            <mxRectangle width="150" height="30" as="alternateBounds" />
          </mxGeometry>
        </mxCell>
        <mxCell id="Jo8jzJtcxEbkA8CnlQCR-46" value="" style="shape=tableRow;horizontal=0;startSize=0;swimlaneHead=0;swimlaneBody=0;fillColor=none;collapsible=0;dropTarget=0;points=[[0,0.5],[1,0.5]];portConstraint=eastwest;top=0;left=0;right=0;bottom=0;" parent="Jo8jzJtcxEbkA8CnlQCR-39" vertex="1">
          <mxGeometry y="90" width="180" height="30" as="geometry" />
        </mxCell>
        <mxCell id="Jo8jzJtcxEbkA8CnlQCR-47" value="U1" style="shape=partialRectangle;connectable=0;fillColor=none;top=0;left=0;bottom=0;right=0;editable=1;overflow=hidden;whiteSpace=wrap;html=1;" parent="Jo8jzJtcxEbkA8CnlQCR-46" vertex="1">
          <mxGeometry width="30" height="30" as="geometry">
            <mxRectangle width="30" height="30" as="alternateBounds" />
          </mxGeometry>
        </mxCell>
        <mxCell id="Jo8jzJtcxEbkA8CnlQCR-48" value="&lt;b&gt;event_datetime&lt;/b&gt;" style="shape=partialRectangle;connectable=0;fillColor=none;top=0;left=0;bottom=0;right=0;align=left;spacingLeft=6;overflow=hidden;whiteSpace=wrap;html=1;" parent="Jo8jzJtcxEbkA8CnlQCR-46" vertex="1">
          <mxGeometry x="30" width="150" height="30" as="geometry">
            <mxRectangle width="150" height="30" as="alternateBounds" />
          </mxGeometry>
        </mxCell>
        <mxCell id="Jo8jzJtcxEbkA8CnlQCR-49" value="" style="shape=tableRow;horizontal=0;startSize=0;swimlaneHead=0;swimlaneBody=0;fillColor=none;collapsible=0;dropTarget=0;points=[[0,0.5],[1,0.5]];portConstraint=eastwest;top=0;left=0;right=0;bottom=0;" parent="Jo8jzJtcxEbkA8CnlQCR-39" vertex="1">
          <mxGeometry y="120" width="180" height="30" as="geometry" />
        </mxCell>
        <mxCell id="Jo8jzJtcxEbkA8CnlQCR-50" value="U1" style="shape=partialRectangle;connectable=0;fillColor=none;top=0;left=0;bottom=0;right=0;editable=1;overflow=hidden;whiteSpace=wrap;html=1;" parent="Jo8jzJtcxEbkA8CnlQCR-49" vertex="1">
          <mxGeometry width="30" height="30" as="geometry">
            <mxRectangle width="30" height="30" as="alternateBounds" />
          </mxGeometry>
        </mxCell>
        <mxCell id="Jo8jzJtcxEbkA8CnlQCR-51" value="&lt;b&gt;event_location&lt;/b&gt;" style="shape=partialRectangle;connectable=0;fillColor=none;top=0;left=0;bottom=0;right=0;align=left;spacingLeft=6;overflow=hidden;whiteSpace=wrap;html=1;" parent="Jo8jzJtcxEbkA8CnlQCR-49" vertex="1">
          <mxGeometry x="30" width="150" height="30" as="geometry">
            <mxRectangle width="150" height="30" as="alternateBounds" />
          </mxGeometry>
        </mxCell>
        <mxCell id="Jo8jzJtcxEbkA8CnlQCR-52" value="" style="shape=tableRow;horizontal=0;startSize=0;swimlaneHead=0;swimlaneBody=0;fillColor=none;collapsible=0;dropTarget=0;points=[[0,0.5],[1,0.5]];portConstraint=eastwest;top=0;left=0;right=0;bottom=0;" parent="Jo8jzJtcxEbkA8CnlQCR-39" vertex="1">
          <mxGeometry y="150" width="180" height="30" as="geometry" />
        </mxCell>
        <mxCell id="Jo8jzJtcxEbkA8CnlQCR-53" value="" style="shape=partialRectangle;connectable=0;fillColor=none;top=0;left=0;bottom=0;right=0;editable=1;overflow=hidden;whiteSpace=wrap;html=1;" parent="Jo8jzJtcxEbkA8CnlQCR-52" vertex="1">
          <mxGeometry width="30" height="30" as="geometry">
            <mxRectangle width="30" height="30" as="alternateBounds" />
          </mxGeometry>
        </mxCell>
        <mxCell id="Jo8jzJtcxEbkA8CnlQCR-54" value="event_description" style="shape=partialRectangle;connectable=0;fillColor=none;top=0;left=0;bottom=0;right=0;align=left;spacingLeft=6;overflow=hidden;whiteSpace=wrap;html=1;" parent="Jo8jzJtcxEbkA8CnlQCR-52" vertex="1">
          <mxGeometry x="30" width="150" height="30" as="geometry">
            <mxRectangle width="150" height="30" as="alternateBounds" />
          </mxGeometry>
        </mxCell>
        <mxCell id="Jo8jzJtcxEbkA8CnlQCR-58" value="employers" style="shape=table;startSize=30;container=1;collapsible=1;childLayout=tableLayout;fixedRows=1;rowLines=0;fontStyle=1;align=center;resizeLast=1;html=1;" parent="1" vertex="1">
          <mxGeometry x="562" y="-179" width="190.75" height="120" as="geometry" />
        </mxCell>
        <mxCell id="Jo8jzJtcxEbkA8CnlQCR-59" value="" style="shape=tableRow;horizontal=0;startSize=0;swimlaneHead=0;swimlaneBody=0;fillColor=none;collapsible=0;dropTarget=0;points=[[0,0.5],[1,0.5]];portConstraint=eastwest;top=0;left=0;right=0;bottom=1;" parent="Jo8jzJtcxEbkA8CnlQCR-58" vertex="1">
          <mxGeometry y="30" width="190.75" height="30" as="geometry" />
        </mxCell>
        <mxCell id="Jo8jzJtcxEbkA8CnlQCR-60" value="PK" style="shape=partialRectangle;connectable=0;fillColor=none;top=0;left=0;bottom=0;right=0;fontStyle=1;overflow=hidden;whiteSpace=wrap;html=1;" parent="Jo8jzJtcxEbkA8CnlQCR-59" vertex="1">
          <mxGeometry width="30" height="30" as="geometry">
            <mxRectangle width="30" height="30" as="alternateBounds" />
          </mxGeometry>
        </mxCell>
        <mxCell id="Jo8jzJtcxEbkA8CnlQCR-61" value="employer_id" style="shape=partialRectangle;connectable=0;fillColor=none;top=0;left=0;bottom=0;right=0;align=left;spacingLeft=6;fontStyle=5;overflow=hidden;whiteSpace=wrap;html=1;" parent="Jo8jzJtcxEbkA8CnlQCR-59" vertex="1">
          <mxGeometry x="30" width="160.75" height="30" as="geometry">
            <mxRectangle width="160.75" height="30" as="alternateBounds" />
          </mxGeometry>
        </mxCell>
        <mxCell id="Jo8jzJtcxEbkA8CnlQCR-62" value="" style="shape=tableRow;horizontal=0;startSize=0;swimlaneHead=0;swimlaneBody=0;fillColor=none;collapsible=0;dropTarget=0;points=[[0,0.5],[1,0.5]];portConstraint=eastwest;top=0;left=0;right=0;bottom=0;" parent="Jo8jzJtcxEbkA8CnlQCR-58" vertex="1">
          <mxGeometry y="60" width="190.75" height="30" as="geometry" />
        </mxCell>
        <mxCell id="Jo8jzJtcxEbkA8CnlQCR-63" value="" style="shape=partialRectangle;connectable=0;fillColor=none;top=0;left=0;bottom=0;right=0;editable=1;overflow=hidden;whiteSpace=wrap;html=1;" parent="Jo8jzJtcxEbkA8CnlQCR-62" vertex="1">
          <mxGeometry width="30" height="30" as="geometry">
            <mxRectangle width="30" height="30" as="alternateBounds" />
          </mxGeometry>
        </mxCell>
        <mxCell id="Jo8jzJtcxEbkA8CnlQCR-64" value="&lt;b&gt;employer_company_name&lt;/b&gt;" style="shape=partialRectangle;connectable=0;fillColor=none;top=0;left=0;bottom=0;right=0;align=left;spacingLeft=6;overflow=hidden;whiteSpace=wrap;html=1;" parent="Jo8jzJtcxEbkA8CnlQCR-62" vertex="1">
          <mxGeometry x="30" width="160.75" height="30" as="geometry">
            <mxRectangle width="160.75" height="30" as="alternateBounds" />
          </mxGeometry>
        </mxCell>
        <mxCell id="Jo8jzJtcxEbkA8CnlQCR-65" value="" style="shape=tableRow;horizontal=0;startSize=0;swimlaneHead=0;swimlaneBody=0;fillColor=none;collapsible=0;dropTarget=0;points=[[0,0.5],[1,0.5]];portConstraint=eastwest;top=0;left=0;right=0;bottom=0;" parent="Jo8jzJtcxEbkA8CnlQCR-58" vertex="1">
          <mxGeometry y="90" width="190.75" height="30" as="geometry" />
        </mxCell>
        <mxCell id="Jo8jzJtcxEbkA8CnlQCR-66" value="U1" style="shape=partialRectangle;connectable=0;fillColor=none;top=0;left=0;bottom=0;right=0;editable=1;overflow=hidden;whiteSpace=wrap;html=1;" parent="Jo8jzJtcxEbkA8CnlQCR-65" vertex="1">
          <mxGeometry width="30" height="30" as="geometry">
            <mxRectangle width="30" height="30" as="alternateBounds" />
          </mxGeometry>
        </mxCell>
        <mxCell id="Jo8jzJtcxEbkA8CnlQCR-67" value="&lt;b&gt;employer_email&lt;/b&gt;" style="shape=partialRectangle;connectable=0;fillColor=none;top=0;left=0;bottom=0;right=0;align=left;spacingLeft=6;overflow=hidden;whiteSpace=wrap;html=1;" parent="Jo8jzJtcxEbkA8CnlQCR-65" vertex="1">
          <mxGeometry x="30" width="160.75" height="30" as="geometry">
            <mxRectangle width="160.75" height="30" as="alternateBounds" />
          </mxGeometry>
        </mxCell>
        <mxCell id="Jo8jzJtcxEbkA8CnlQCR-71" value="employers_industries" style="shape=table;startSize=30;container=1;collapsible=1;childLayout=tableLayout;fixedRows=1;rowLines=0;fontStyle=1;align=center;resizeLast=1;html=1;whiteSpace=wrap;" parent="1" vertex="1">
          <mxGeometry x="530" y="34" width="180" height="90" as="geometry" />
        </mxCell>
        <mxCell id="Jo8jzJtcxEbkA8CnlQCR-72" value="" style="shape=tableRow;horizontal=0;startSize=0;swimlaneHead=0;swimlaneBody=0;fillColor=none;collapsible=0;dropTarget=0;points=[[0,0.5],[1,0.5]];portConstraint=eastwest;top=0;left=0;right=0;bottom=0;html=1;" parent="Jo8jzJtcxEbkA8CnlQCR-71" vertex="1">
          <mxGeometry y="30" width="180" height="30" as="geometry" />
        </mxCell>
        <mxCell id="Jo8jzJtcxEbkA8CnlQCR-73" value="PK,FK1" style="shape=partialRectangle;connectable=0;fillColor=none;top=0;left=0;bottom=0;right=0;fontStyle=1;overflow=hidden;html=1;whiteSpace=wrap;" parent="Jo8jzJtcxEbkA8CnlQCR-72" vertex="1">
          <mxGeometry width="60" height="30" as="geometry">
            <mxRectangle width="60" height="30" as="alternateBounds" />
          </mxGeometry>
        </mxCell>
        <mxCell id="Jo8jzJtcxEbkA8CnlQCR-74" value="employer_id" style="shape=partialRectangle;connectable=0;fillColor=none;top=0;left=0;bottom=0;right=0;align=left;spacingLeft=6;fontStyle=5;overflow=hidden;html=1;whiteSpace=wrap;" parent="Jo8jzJtcxEbkA8CnlQCR-72" vertex="1">
          <mxGeometry x="60" width="120" height="30" as="geometry">
            <mxRectangle width="120" height="30" as="alternateBounds" />
          </mxGeometry>
        </mxCell>
        <mxCell id="Jo8jzJtcxEbkA8CnlQCR-75" value="" style="shape=tableRow;horizontal=0;startSize=0;swimlaneHead=0;swimlaneBody=0;fillColor=none;collapsible=0;dropTarget=0;points=[[0,0.5],[1,0.5]];portConstraint=eastwest;top=0;left=0;right=0;bottom=1;html=1;" parent="Jo8jzJtcxEbkA8CnlQCR-71" vertex="1">
          <mxGeometry y="60" width="180" height="30" as="geometry" />
        </mxCell>
        <mxCell id="Jo8jzJtcxEbkA8CnlQCR-76" value="PK,FK2" style="shape=partialRectangle;connectable=0;fillColor=none;top=0;left=0;bottom=0;right=0;fontStyle=1;overflow=hidden;html=1;whiteSpace=wrap;" parent="Jo8jzJtcxEbkA8CnlQCR-75" vertex="1">
          <mxGeometry width="60" height="30" as="geometry">
            <mxRectangle width="60" height="30" as="alternateBounds" />
          </mxGeometry>
        </mxCell>
        <mxCell id="Jo8jzJtcxEbkA8CnlQCR-77" value="industry_id" style="shape=partialRectangle;connectable=0;fillColor=none;top=0;left=0;bottom=0;right=0;align=left;spacingLeft=6;fontStyle=5;overflow=hidden;html=1;whiteSpace=wrap;" parent="Jo8jzJtcxEbkA8CnlQCR-75" vertex="1">
          <mxGeometry x="60" width="120" height="30" as="geometry">
            <mxRectangle width="120" height="30" as="alternateBounds" />
          </mxGeometry>
        </mxCell>
        <mxCell id="Jo8jzJtcxEbkA8CnlQCR-84" style="edgeStyle=none;curved=0;rounded=0;orthogonalLoop=1;jettySize=auto;html=1;entryX=0;entryY=0.267;entryDx=0;entryDy=0;fontSize=12;startSize=8;endSize=8;entryPerimeter=0;" parent="1" source="Jo8jzJtcxEbkA8CnlQCR-72" target="Jo8jzJtcxEbkA8CnlQCR-59" edge="1">
          <mxGeometry relative="1" as="geometry">
            <mxPoint x="533" y="79" as="sourcePoint" />
            <Array as="points">
              <mxPoint x="495" y="84" />
              <mxPoint x="495" y="-140" />
            </Array>
          </mxGeometry>
        </mxCell>
        <mxCell id="Jo8jzJtcxEbkA8CnlQCR-85" value="industries" style="shape=table;startSize=30;container=1;collapsible=1;childLayout=tableLayout;fixedRows=1;rowLines=0;fontStyle=1;align=center;resizeLast=1;html=1;" parent="1" vertex="1">
          <mxGeometry x="287" y="118" width="180" height="90" as="geometry" />
        </mxCell>
        <mxCell id="Jo8jzJtcxEbkA8CnlQCR-86" value="" style="shape=tableRow;horizontal=0;startSize=0;swimlaneHead=0;swimlaneBody=0;fillColor=none;collapsible=0;dropTarget=0;points=[[0,0.5],[1,0.5]];portConstraint=eastwest;top=0;left=0;right=0;bottom=1;" parent="Jo8jzJtcxEbkA8CnlQCR-85" vertex="1">
          <mxGeometry y="30" width="180" height="30" as="geometry" />
        </mxCell>
        <mxCell id="Jo8jzJtcxEbkA8CnlQCR-87" value="PK" style="shape=partialRectangle;connectable=0;fillColor=none;top=0;left=0;bottom=0;right=0;fontStyle=1;overflow=hidden;whiteSpace=wrap;html=1;" parent="Jo8jzJtcxEbkA8CnlQCR-86" vertex="1">
          <mxGeometry width="30" height="30" as="geometry">
            <mxRectangle width="30" height="30" as="alternateBounds" />
          </mxGeometry>
        </mxCell>
        <mxCell id="Jo8jzJtcxEbkA8CnlQCR-88" value="industry_id" style="shape=partialRectangle;connectable=0;fillColor=none;top=0;left=0;bottom=0;right=0;align=left;spacingLeft=6;fontStyle=5;overflow=hidden;whiteSpace=wrap;html=1;" parent="Jo8jzJtcxEbkA8CnlQCR-86" vertex="1">
          <mxGeometry x="30" width="150" height="30" as="geometry">
            <mxRectangle width="150" height="30" as="alternateBounds" />
          </mxGeometry>
        </mxCell>
        <mxCell id="Jo8jzJtcxEbkA8CnlQCR-89" value="" style="shape=tableRow;horizontal=0;startSize=0;swimlaneHead=0;swimlaneBody=0;fillColor=none;collapsible=0;dropTarget=0;points=[[0,0.5],[1,0.5]];portConstraint=eastwest;top=0;left=0;right=0;bottom=0;" parent="Jo8jzJtcxEbkA8CnlQCR-85" vertex="1">
          <mxGeometry y="60" width="180" height="30" as="geometry" />
        </mxCell>
        <mxCell id="Jo8jzJtcxEbkA8CnlQCR-90" value="U1" style="shape=partialRectangle;connectable=0;fillColor=none;top=0;left=0;bottom=0;right=0;editable=1;overflow=hidden;whiteSpace=wrap;html=1;" parent="Jo8jzJtcxEbkA8CnlQCR-89" vertex="1">
          <mxGeometry width="30" height="30" as="geometry">
            <mxRectangle width="30" height="30" as="alternateBounds" />
          </mxGeometry>
        </mxCell>
        <mxCell id="Jo8jzJtcxEbkA8CnlQCR-91" value="&lt;b&gt;industry_name&lt;/b&gt;" style="shape=partialRectangle;connectable=0;fillColor=none;top=0;left=0;bottom=0;right=0;align=left;spacingLeft=6;overflow=hidden;whiteSpace=wrap;html=1;" parent="Jo8jzJtcxEbkA8CnlQCR-89" vertex="1">
          <mxGeometry x="30" width="150" height="30" as="geometry">
            <mxRectangle width="150" height="30" as="alternateBounds" />
          </mxGeometry>
        </mxCell>
        <mxCell id="Jo8jzJtcxEbkA8CnlQCR-98" style="edgeStyle=none;curved=0;rounded=0;orthogonalLoop=1;jettySize=auto;html=1;entryX=1;entryY=0.5;entryDx=0;entryDy=0;fontSize=12;startSize=8;endSize=8;exitX=0;exitY=0.5;exitDx=0;exitDy=0;" parent="1" source="Jo8jzJtcxEbkA8CnlQCR-75" target="Jo8jzJtcxEbkA8CnlQCR-86" edge="1">
          <mxGeometry relative="1" as="geometry">
            <Array as="points">
              <mxPoint x="516" y="109" />
              <mxPoint x="516" y="163" />
            </Array>
          </mxGeometry>
        </mxCell>
        <mxCell id="Jo8jzJtcxEbkA8CnlQCR-99" value="association_members" style="shape=table;startSize=30;container=1;collapsible=1;childLayout=tableLayout;fixedRows=1;rowLines=0;fontStyle=1;align=center;resizeLast=1;html=1;" parent="1" vertex="1">
          <mxGeometry x="-169" y="-257" width="276.75" height="150" as="geometry" />
        </mxCell>
        <mxCell id="Jo8jzJtcxEbkA8CnlQCR-100" value="" style="shape=tableRow;horizontal=0;startSize=0;swimlaneHead=0;swimlaneBody=0;fillColor=none;collapsible=0;dropTarget=0;points=[[0,0.5],[1,0.5]];portConstraint=eastwest;top=0;left=0;right=0;bottom=1;" parent="Jo8jzJtcxEbkA8CnlQCR-99" vertex="1">
          <mxGeometry y="30" width="276.75" height="30" as="geometry" />
        </mxCell>
        <mxCell id="Jo8jzJtcxEbkA8CnlQCR-101" value="PK" style="shape=partialRectangle;connectable=0;fillColor=none;top=0;left=0;bottom=0;right=0;fontStyle=1;overflow=hidden;whiteSpace=wrap;html=1;" parent="Jo8jzJtcxEbkA8CnlQCR-100" vertex="1">
          <mxGeometry width="48.75" height="30" as="geometry">
            <mxRectangle width="48.75" height="30" as="alternateBounds" />
          </mxGeometry>
        </mxCell>
        <mxCell id="Jo8jzJtcxEbkA8CnlQCR-102" value="association_member_id" style="shape=partialRectangle;connectable=0;fillColor=none;top=0;left=0;bottom=0;right=0;align=left;spacingLeft=6;fontStyle=5;overflow=hidden;whiteSpace=wrap;html=1;" parent="Jo8jzJtcxEbkA8CnlQCR-100" vertex="1">
          <mxGeometry x="48.75" width="228" height="30" as="geometry">
            <mxRectangle width="228" height="30" as="alternateBounds" />
          </mxGeometry>
        </mxCell>
        <mxCell id="Jo8jzJtcxEbkA8CnlQCR-103" value="" style="shape=tableRow;horizontal=0;startSize=0;swimlaneHead=0;swimlaneBody=0;fillColor=none;collapsible=0;dropTarget=0;points=[[0,0.5],[1,0.5]];portConstraint=eastwest;top=0;left=0;right=0;bottom=0;" parent="Jo8jzJtcxEbkA8CnlQCR-99" vertex="1">
          <mxGeometry y="60" width="276.75" height="30" as="geometry" />
        </mxCell>
        <mxCell id="Jo8jzJtcxEbkA8CnlQCR-104" value="" style="shape=partialRectangle;connectable=0;fillColor=none;top=0;left=0;bottom=0;right=0;editable=1;overflow=hidden;whiteSpace=wrap;html=1;" parent="Jo8jzJtcxEbkA8CnlQCR-103" vertex="1">
          <mxGeometry width="48.75" height="30" as="geometry">
            <mxRectangle width="48.75" height="30" as="alternateBounds" />
          </mxGeometry>
        </mxCell>
        <mxCell id="Jo8jzJtcxEbkA8CnlQCR-105" value="&lt;b&gt;association_member_position&lt;/b&gt;" style="shape=partialRectangle;connectable=0;fillColor=none;top=0;left=0;bottom=0;right=0;align=left;spacingLeft=6;overflow=hidden;whiteSpace=wrap;html=1;" parent="Jo8jzJtcxEbkA8CnlQCR-103" vertex="1">
          <mxGeometry x="48.75" width="228" height="30" as="geometry">
            <mxRectangle width="228" height="30" as="alternateBounds" />
          </mxGeometry>
        </mxCell>
        <mxCell id="Jo8jzJtcxEbkA8CnlQCR-106" value="" style="shape=tableRow;horizontal=0;startSize=0;swimlaneHead=0;swimlaneBody=0;fillColor=none;collapsible=0;dropTarget=0;points=[[0,0.5],[1,0.5]];portConstraint=eastwest;top=0;left=0;right=0;bottom=0;" parent="Jo8jzJtcxEbkA8CnlQCR-99" vertex="1">
          <mxGeometry y="90" width="276.75" height="30" as="geometry" />
        </mxCell>
        <mxCell id="Jo8jzJtcxEbkA8CnlQCR-107" value="" style="shape=partialRectangle;connectable=0;fillColor=none;top=0;left=0;bottom=0;right=0;editable=1;overflow=hidden;whiteSpace=wrap;html=1;" parent="Jo8jzJtcxEbkA8CnlQCR-106" vertex="1">
          <mxGeometry width="48.75" height="30" as="geometry">
            <mxRectangle width="48.75" height="30" as="alternateBounds" />
          </mxGeometry>
        </mxCell>
        <mxCell id="Jo8jzJtcxEbkA8CnlQCR-108" value="&lt;b&gt;association_member_responsibilities&lt;/b&gt;" style="shape=partialRectangle;connectable=0;fillColor=none;top=0;left=0;bottom=0;right=0;align=left;spacingLeft=6;overflow=hidden;whiteSpace=wrap;html=1;" parent="Jo8jzJtcxEbkA8CnlQCR-106" vertex="1">
          <mxGeometry x="48.75" width="228" height="30" as="geometry">
            <mxRectangle width="228" height="30" as="alternateBounds" />
          </mxGeometry>
        </mxCell>
        <mxCell id="Jo8jzJtcxEbkA8CnlQCR-109" value="" style="shape=tableRow;horizontal=0;startSize=0;swimlaneHead=0;swimlaneBody=0;fillColor=none;collapsible=0;dropTarget=0;points=[[0,0.5],[1,0.5]];portConstraint=eastwest;top=0;left=0;right=0;bottom=0;" parent="Jo8jzJtcxEbkA8CnlQCR-99" vertex="1">
          <mxGeometry y="120" width="276.75" height="30" as="geometry" />
        </mxCell>
        <mxCell id="Jo8jzJtcxEbkA8CnlQCR-110" value="FK1,U1" style="shape=partialRectangle;connectable=0;fillColor=none;top=0;left=0;bottom=0;right=0;editable=1;overflow=hidden;whiteSpace=wrap;html=1;" parent="Jo8jzJtcxEbkA8CnlQCR-109" vertex="1">
          <mxGeometry width="48.75" height="30" as="geometry">
            <mxRectangle width="48.75" height="30" as="alternateBounds" />
          </mxGeometry>
        </mxCell>
        <mxCell id="Jo8jzJtcxEbkA8CnlQCR-111" value="&lt;b&gt;association_member_student_id&lt;/b&gt;" style="shape=partialRectangle;connectable=0;fillColor=none;top=0;left=0;bottom=0;right=0;align=left;spacingLeft=6;overflow=hidden;whiteSpace=wrap;html=1;" parent="Jo8jzJtcxEbkA8CnlQCR-109" vertex="1">
          <mxGeometry x="48.75" width="228" height="30" as="geometry">
            <mxRectangle width="228" height="30" as="alternateBounds" />
          </mxGeometry>
        </mxCell>
        <mxCell id="Jo8jzJtcxEbkA8CnlQCR-112" style="edgeStyle=none;curved=0;rounded=0;orthogonalLoop=1;jettySize=auto;html=1;fontSize=12;startSize=8;endSize=8;" parent="1" source="Jo8jzJtcxEbkA8CnlQCR-109" target="Jo8jzJtcxEbkA8CnlQCR-2" edge="1">
          <mxGeometry relative="1" as="geometry">
            <mxPoint x="-77" y="-473" as="targetPoint" />
            <Array as="points">
              <mxPoint x="-204" y="-122" />
              <mxPoint x="-204" y="-363" />
              <mxPoint x="-204" y="-554" />
            </Array>
          </mxGeometry>
        </mxCell>
        <mxCell id="Jo8jzJtcxEbkA8CnlQCR-113" style="edgeStyle=none;curved=0;rounded=0;orthogonalLoop=1;jettySize=auto;html=1;fontSize=12;startSize=8;endSize=8;startArrow=classic;startFill=1;endArrow=none;endFill=0;exitX=0.989;exitY=0.267;exitDx=0;exitDy=0;exitPerimeter=0;" parent="1" source="Jo8jzJtcxEbkA8CnlQCR-2" target="Jo8jzJtcxEbkA8CnlQCR-33" edge="1">
          <mxGeometry relative="1" as="geometry">
            <Array as="points">
              <mxPoint x="172" y="-561" />
              <mxPoint x="172" y="-526" />
            </Array>
          </mxGeometry>
        </mxCell>
        <mxCell id="Jo8jzJtcxEbkA8CnlQCR-114" style="edgeStyle=none;curved=0;rounded=0;orthogonalLoop=1;jettySize=auto;html=1;fontSize=12;startSize=8;endSize=8;startArrow=classic;startFill=1;endArrow=none;endFill=0;" parent="1" source="Jo8jzJtcxEbkA8CnlQCR-40" target="Jo8jzJtcxEbkA8CnlQCR-36" edge="1">
          <mxGeometry relative="1" as="geometry">
            <Array as="points">
              <mxPoint x="191" y="-408" />
              <mxPoint x="191" y="-496" />
            </Array>
          </mxGeometry>
        </mxCell>
        <mxCell id="Jo8jzJtcxEbkA8CnlQCR-115" value="applications" style="shape=table;startSize=30;container=1;collapsible=1;childLayout=tableLayout;fixedRows=1;rowLines=0;fontStyle=1;align=center;resizeLast=1;html=1;" parent="1" vertex="1">
          <mxGeometry x="198" y="-209" width="219.75" height="240" as="geometry" />
        </mxCell>
        <mxCell id="Jo8jzJtcxEbkA8CnlQCR-116" value="" style="shape=tableRow;horizontal=0;startSize=0;swimlaneHead=0;swimlaneBody=0;fillColor=none;collapsible=0;dropTarget=0;points=[[0,0.5],[1,0.5]];portConstraint=eastwest;top=0;left=0;right=0;bottom=1;" parent="Jo8jzJtcxEbkA8CnlQCR-115" vertex="1">
          <mxGeometry y="30" width="219.75" height="30" as="geometry" />
        </mxCell>
        <mxCell id="Jo8jzJtcxEbkA8CnlQCR-117" value="PK" style="shape=partialRectangle;connectable=0;fillColor=none;top=0;left=0;bottom=0;right=0;fontStyle=1;overflow=hidden;whiteSpace=wrap;html=1;" parent="Jo8jzJtcxEbkA8CnlQCR-116" vertex="1">
          <mxGeometry width="54.75" height="30" as="geometry">
            <mxRectangle width="54.75" height="30" as="alternateBounds" />
          </mxGeometry>
        </mxCell>
        <mxCell id="Jo8jzJtcxEbkA8CnlQCR-118" value="application_id" style="shape=partialRectangle;connectable=0;fillColor=none;top=0;left=0;bottom=0;right=0;align=left;spacingLeft=6;fontStyle=5;overflow=hidden;whiteSpace=wrap;html=1;" parent="Jo8jzJtcxEbkA8CnlQCR-116" vertex="1">
          <mxGeometry x="54.75" width="165" height="30" as="geometry">
            <mxRectangle width="165" height="30" as="alternateBounds" />
          </mxGeometry>
        </mxCell>
        <mxCell id="Jo8jzJtcxEbkA8CnlQCR-119" value="" style="shape=tableRow;horizontal=0;startSize=0;swimlaneHead=0;swimlaneBody=0;fillColor=none;collapsible=0;dropTarget=0;points=[[0,0.5],[1,0.5]];portConstraint=eastwest;top=0;left=0;right=0;bottom=0;" parent="Jo8jzJtcxEbkA8CnlQCR-115" vertex="1">
          <mxGeometry y="60" width="219.75" height="30" as="geometry" />
        </mxCell>
        <mxCell id="Jo8jzJtcxEbkA8CnlQCR-120" value="FK1,U1" style="shape=partialRectangle;connectable=0;fillColor=none;top=0;left=0;bottom=0;right=0;editable=1;overflow=hidden;whiteSpace=wrap;html=1;" parent="Jo8jzJtcxEbkA8CnlQCR-119" vertex="1">
          <mxGeometry width="54.75" height="30" as="geometry">
            <mxRectangle width="54.75" height="30" as="alternateBounds" />
          </mxGeometry>
        </mxCell>
        <mxCell id="Jo8jzJtcxEbkA8CnlQCR-121" value="&lt;b&gt;application_job_id&lt;/b&gt;" style="shape=partialRectangle;connectable=0;fillColor=none;top=0;left=0;bottom=0;right=0;align=left;spacingLeft=6;overflow=hidden;whiteSpace=wrap;html=1;" parent="Jo8jzJtcxEbkA8CnlQCR-119" vertex="1">
          <mxGeometry x="54.75" width="165" height="30" as="geometry">
            <mxRectangle width="165" height="30" as="alternateBounds" />
          </mxGeometry>
        </mxCell>
        <mxCell id="Jo8jzJtcxEbkA8CnlQCR-122" value="" style="shape=tableRow;horizontal=0;startSize=0;swimlaneHead=0;swimlaneBody=0;fillColor=none;collapsible=0;dropTarget=0;points=[[0,0.5],[1,0.5]];portConstraint=eastwest;top=0;left=0;right=0;bottom=0;" parent="Jo8jzJtcxEbkA8CnlQCR-115" vertex="1">
          <mxGeometry y="90" width="219.75" height="30" as="geometry" />
        </mxCell>
        <mxCell id="Jo8jzJtcxEbkA8CnlQCR-123" value="FK2,U1" style="shape=partialRectangle;connectable=0;fillColor=none;top=0;left=0;bottom=0;right=0;editable=1;overflow=hidden;whiteSpace=wrap;html=1;" parent="Jo8jzJtcxEbkA8CnlQCR-122" vertex="1">
          <mxGeometry width="54.75" height="30" as="geometry">
            <mxRectangle width="54.75" height="30" as="alternateBounds" />
          </mxGeometry>
        </mxCell>
        <mxCell id="Jo8jzJtcxEbkA8CnlQCR-124" value="&lt;b&gt;application_student_id&lt;/b&gt;" style="shape=partialRectangle;connectable=0;fillColor=none;top=0;left=0;bottom=0;right=0;align=left;spacingLeft=6;overflow=hidden;whiteSpace=wrap;html=1;" parent="Jo8jzJtcxEbkA8CnlQCR-122" vertex="1">
          <mxGeometry x="54.75" width="165" height="30" as="geometry">
            <mxRectangle width="165" height="30" as="alternateBounds" />
          </mxGeometry>
        </mxCell>
        <mxCell id="Jo8jzJtcxEbkA8CnlQCR-125" value="" style="shape=tableRow;horizontal=0;startSize=0;swimlaneHead=0;swimlaneBody=0;fillColor=none;collapsible=0;dropTarget=0;points=[[0,0.5],[1,0.5]];portConstraint=eastwest;top=0;left=0;right=0;bottom=0;" parent="Jo8jzJtcxEbkA8CnlQCR-115" vertex="1">
          <mxGeometry y="120" width="219.75" height="30" as="geometry" />
        </mxCell>
        <mxCell id="Jo8jzJtcxEbkA8CnlQCR-126" value="FK3,U1" style="shape=partialRectangle;connectable=0;fillColor=none;top=0;left=0;bottom=0;right=0;editable=1;overflow=hidden;whiteSpace=wrap;html=1;" parent="Jo8jzJtcxEbkA8CnlQCR-125" vertex="1">
          <mxGeometry width="54.75" height="30" as="geometry">
            <mxRectangle width="54.75" height="30" as="alternateBounds" />
          </mxGeometry>
        </mxCell>
        <mxCell id="Jo8jzJtcxEbkA8CnlQCR-127" value="&lt;b&gt;application_employer_id&lt;/b&gt;" style="shape=partialRectangle;connectable=0;fillColor=none;top=0;left=0;bottom=0;right=0;align=left;spacingLeft=6;overflow=hidden;whiteSpace=wrap;html=1;" parent="Jo8jzJtcxEbkA8CnlQCR-125" vertex="1">
          <mxGeometry x="54.75" width="165" height="30" as="geometry">
            <mxRectangle width="165" height="30" as="alternateBounds" />
          </mxGeometry>
        </mxCell>
        <mxCell id="Jo8jzJtcxEbkA8CnlQCR-128" value="" style="shape=tableRow;horizontal=0;startSize=0;swimlaneHead=0;swimlaneBody=0;fillColor=none;collapsible=0;dropTarget=0;points=[[0,0.5],[1,0.5]];portConstraint=eastwest;top=0;left=0;right=0;bottom=0;" parent="Jo8jzJtcxEbkA8CnlQCR-115" vertex="1">
          <mxGeometry y="150" width="219.75" height="30" as="geometry" />
        </mxCell>
        <mxCell id="Jo8jzJtcxEbkA8CnlQCR-129" value="" style="shape=partialRectangle;connectable=0;fillColor=none;top=0;left=0;bottom=0;right=0;editable=1;overflow=hidden;whiteSpace=wrap;html=1;" parent="Jo8jzJtcxEbkA8CnlQCR-128" vertex="1">
          <mxGeometry width="54.75" height="30" as="geometry">
            <mxRectangle width="54.75" height="30" as="alternateBounds" />
          </mxGeometry>
        </mxCell>
        <mxCell id="Jo8jzJtcxEbkA8CnlQCR-130" value="&lt;b&gt;application_resume_link&lt;/b&gt;" style="shape=partialRectangle;connectable=0;fillColor=none;top=0;left=0;bottom=0;right=0;align=left;spacingLeft=6;overflow=hidden;whiteSpace=wrap;html=1;" parent="Jo8jzJtcxEbkA8CnlQCR-128" vertex="1">
          <mxGeometry x="54.75" width="165" height="30" as="geometry">
            <mxRectangle width="165" height="30" as="alternateBounds" />
          </mxGeometry>
        </mxCell>
        <mxCell id="Jo8jzJtcxEbkA8CnlQCR-131" value="" style="shape=tableRow;horizontal=0;startSize=0;swimlaneHead=0;swimlaneBody=0;fillColor=none;collapsible=0;dropTarget=0;points=[[0,0.5],[1,0.5]];portConstraint=eastwest;top=0;left=0;right=0;bottom=0;" parent="Jo8jzJtcxEbkA8CnlQCR-115" vertex="1">
          <mxGeometry y="180" width="219.75" height="30" as="geometry" />
        </mxCell>
        <mxCell id="Jo8jzJtcxEbkA8CnlQCR-132" value="" style="shape=partialRectangle;connectable=0;fillColor=none;top=0;left=0;bottom=0;right=0;editable=1;overflow=hidden;whiteSpace=wrap;html=1;" parent="Jo8jzJtcxEbkA8CnlQCR-131" vertex="1">
          <mxGeometry width="54.75" height="30" as="geometry">
            <mxRectangle width="54.75" height="30" as="alternateBounds" />
          </mxGeometry>
        </mxCell>
        <mxCell id="Jo8jzJtcxEbkA8CnlQCR-133" value="application_cover_letter_link" style="shape=partialRectangle;connectable=0;fillColor=none;top=0;left=0;bottom=0;right=0;align=left;spacingLeft=6;overflow=hidden;whiteSpace=wrap;html=1;" parent="Jo8jzJtcxEbkA8CnlQCR-131" vertex="1">
          <mxGeometry x="54.75" width="165" height="30" as="geometry">
            <mxRectangle width="165" height="30" as="alternateBounds" />
          </mxGeometry>
        </mxCell>
        <mxCell id="Jo8jzJtcxEbkA8CnlQCR-134" value="" style="shape=tableRow;horizontal=0;startSize=0;swimlaneHead=0;swimlaneBody=0;fillColor=none;collapsible=0;dropTarget=0;points=[[0,0.5],[1,0.5]];portConstraint=eastwest;top=0;left=0;right=0;bottom=0;" parent="Jo8jzJtcxEbkA8CnlQCR-115" vertex="1">
          <mxGeometry y="210" width="219.75" height="30" as="geometry" />
        </mxCell>
        <mxCell id="Jo8jzJtcxEbkA8CnlQCR-135" value="" style="shape=partialRectangle;connectable=0;fillColor=none;top=0;left=0;bottom=0;right=0;editable=1;overflow=hidden;whiteSpace=wrap;html=1;" parent="Jo8jzJtcxEbkA8CnlQCR-134" vertex="1">
          <mxGeometry width="54.75" height="30" as="geometry">
            <mxRectangle width="54.75" height="30" as="alternateBounds" />
          </mxGeometry>
        </mxCell>
        <mxCell id="Jo8jzJtcxEbkA8CnlQCR-136" value="&lt;b&gt;application_status&lt;/b&gt;" style="shape=partialRectangle;connectable=0;fillColor=none;top=0;left=0;bottom=0;right=0;align=left;spacingLeft=6;overflow=hidden;whiteSpace=wrap;html=1;" parent="Jo8jzJtcxEbkA8CnlQCR-134" vertex="1">
          <mxGeometry x="54.75" width="165" height="30" as="geometry">
            <mxRectangle width="165" height="30" as="alternateBounds" />
          </mxGeometry>
        </mxCell>
        <mxCell id="Jo8jzJtcxEbkA8CnlQCR-137" style="edgeStyle=none;curved=0;rounded=0;orthogonalLoop=1;jettySize=auto;html=1;entryX=1.017;entryY=0.767;entryDx=0;entryDy=0;entryPerimeter=0;fontSize=12;startSize=8;endSize=8;exitX=0;exitY=0.5;exitDx=0;exitDy=0;" parent="1" source="Jo8jzJtcxEbkA8CnlQCR-122" target="Jo8jzJtcxEbkA8CnlQCR-2" edge="1">
          <mxGeometry relative="1" as="geometry">
            <Array as="points">
              <mxPoint x="141" y="-104" />
              <mxPoint x="141" y="-546" />
            </Array>
          </mxGeometry>
        </mxCell>
        <mxCell id="Jo8jzJtcxEbkA8CnlQCR-138" value="students_events" style="shape=table;startSize=30;container=1;collapsible=1;childLayout=tableLayout;fixedRows=1;rowLines=0;fontStyle=1;align=center;resizeLast=1;html=1;whiteSpace=wrap;" parent="1" vertex="1">
          <mxGeometry x="155" y="-371" width="180" height="90" as="geometry" />
        </mxCell>
        <mxCell id="Jo8jzJtcxEbkA8CnlQCR-139" value="" style="shape=tableRow;horizontal=0;startSize=0;swimlaneHead=0;swimlaneBody=0;fillColor=none;collapsible=0;dropTarget=0;points=[[0,0.5],[1,0.5]];portConstraint=eastwest;top=0;left=0;right=0;bottom=0;html=1;" parent="Jo8jzJtcxEbkA8CnlQCR-138" vertex="1">
          <mxGeometry y="30" width="180" height="30" as="geometry" />
        </mxCell>
        <mxCell id="Jo8jzJtcxEbkA8CnlQCR-140" value="PK,FK1" style="shape=partialRectangle;connectable=0;fillColor=none;top=0;left=0;bottom=0;right=0;fontStyle=1;overflow=hidden;html=1;whiteSpace=wrap;" parent="Jo8jzJtcxEbkA8CnlQCR-139" vertex="1">
          <mxGeometry width="60" height="30" as="geometry">
            <mxRectangle width="60" height="30" as="alternateBounds" />
          </mxGeometry>
        </mxCell>
        <mxCell id="Jo8jzJtcxEbkA8CnlQCR-141" value="student_id" style="shape=partialRectangle;connectable=0;fillColor=none;top=0;left=0;bottom=0;right=0;align=left;spacingLeft=6;fontStyle=5;overflow=hidden;html=1;whiteSpace=wrap;" parent="Jo8jzJtcxEbkA8CnlQCR-139" vertex="1">
          <mxGeometry x="60" width="120" height="30" as="geometry">
            <mxRectangle width="120" height="30" as="alternateBounds" />
          </mxGeometry>
        </mxCell>
        <mxCell id="Jo8jzJtcxEbkA8CnlQCR-142" value="" style="shape=tableRow;horizontal=0;startSize=0;swimlaneHead=0;swimlaneBody=0;fillColor=none;collapsible=0;dropTarget=0;points=[[0,0.5],[1,0.5]];portConstraint=eastwest;top=0;left=0;right=0;bottom=1;html=1;" parent="Jo8jzJtcxEbkA8CnlQCR-138" vertex="1">
          <mxGeometry y="60" width="180" height="30" as="geometry" />
        </mxCell>
        <mxCell id="Jo8jzJtcxEbkA8CnlQCR-143" value="PK,FK2" style="shape=partialRectangle;connectable=0;fillColor=none;top=0;left=0;bottom=0;right=0;fontStyle=1;overflow=hidden;html=1;whiteSpace=wrap;" parent="Jo8jzJtcxEbkA8CnlQCR-142" vertex="1">
          <mxGeometry width="60" height="30" as="geometry">
            <mxRectangle width="60" height="30" as="alternateBounds" />
          </mxGeometry>
        </mxCell>
        <mxCell id="Jo8jzJtcxEbkA8CnlQCR-144" value="event_id" style="shape=partialRectangle;connectable=0;fillColor=none;top=0;left=0;bottom=0;right=0;align=left;spacingLeft=6;fontStyle=5;overflow=hidden;html=1;whiteSpace=wrap;" parent="Jo8jzJtcxEbkA8CnlQCR-142" vertex="1">
          <mxGeometry x="60" width="120" height="30" as="geometry">
            <mxRectangle width="120" height="30" as="alternateBounds" />
          </mxGeometry>
        </mxCell>
        <mxCell id="Jo8jzJtcxEbkA8CnlQCR-151" style="edgeStyle=none;curved=0;rounded=0;orthogonalLoop=1;jettySize=auto;html=1;entryX=-0.011;entryY=0.767;entryDx=0;entryDy=0;entryPerimeter=0;fontSize=12;startSize=8;endSize=8;" parent="1" source="Jo8jzJtcxEbkA8CnlQCR-142" target="Jo8jzJtcxEbkA8CnlQCR-40" edge="1">
          <mxGeometry relative="1" as="geometry">
            <Array as="points">
              <mxPoint x="381" y="-300" />
              <mxPoint x="381" y="-402" />
            </Array>
          </mxGeometry>
        </mxCell>
        <mxCell id="Jo8jzJtcxEbkA8CnlQCR-152" style="edgeStyle=none;curved=0;rounded=0;orthogonalLoop=1;jettySize=auto;html=1;entryX=-0.028;entryY=0.767;entryDx=0;entryDy=0;entryPerimeter=0;fontSize=12;startSize=8;endSize=8;" parent="1" source="Jo8jzJtcxEbkA8CnlQCR-139" target="Jo8jzJtcxEbkA8CnlQCR-2" edge="1">
          <mxGeometry relative="1" as="geometry">
            <Array as="points">
              <mxPoint x="-111" y="-326" />
              <mxPoint x="-113" y="-546" />
            </Array>
          </mxGeometry>
        </mxCell>
        <mxCell id="Jo8jzJtcxEbkA8CnlQCR-153" style="edgeStyle=none;curved=0;rounded=0;orthogonalLoop=1;jettySize=auto;html=1;entryX=-0.005;entryY=0.733;entryDx=0;entryDy=0;entryPerimeter=0;fontSize=12;startSize=8;endSize=8;" parent="1" source="Jo8jzJtcxEbkA8CnlQCR-125" target="Jo8jzJtcxEbkA8CnlQCR-59" edge="1">
          <mxGeometry relative="1" as="geometry">
            <Array as="points">
              <mxPoint x="473" y="-74" />
              <mxPoint x="473" y="-127" />
            </Array>
          </mxGeometry>
        </mxCell>
        <mxCell id="Jo8jzJtcxEbkA8CnlQCR-154" value="jobs" style="shape=table;startSize=30;container=1;collapsible=1;childLayout=tableLayout;fixedRows=1;rowLines=0;fontStyle=1;align=center;resizeLast=1;html=1;" parent="1" vertex="1">
          <mxGeometry x="699" y="-656" width="184.75" height="270" as="geometry" />
        </mxCell>
        <mxCell id="Jo8jzJtcxEbkA8CnlQCR-155" value="" style="shape=tableRow;horizontal=0;startSize=0;swimlaneHead=0;swimlaneBody=0;fillColor=none;collapsible=0;dropTarget=0;points=[[0,0.5],[1,0.5]];portConstraint=eastwest;top=0;left=0;right=0;bottom=1;" parent="Jo8jzJtcxEbkA8CnlQCR-154" vertex="1">
          <mxGeometry y="30" width="184.75" height="30" as="geometry" />
        </mxCell>
        <mxCell id="Jo8jzJtcxEbkA8CnlQCR-156" value="PK" style="shape=partialRectangle;connectable=0;fillColor=none;top=0;left=0;bottom=0;right=0;fontStyle=1;overflow=hidden;whiteSpace=wrap;html=1;" parent="Jo8jzJtcxEbkA8CnlQCR-155" vertex="1">
          <mxGeometry width="50.75" height="30" as="geometry">
            <mxRectangle width="50.75" height="30" as="alternateBounds" />
          </mxGeometry>
        </mxCell>
        <mxCell id="Jo8jzJtcxEbkA8CnlQCR-157" value="job_id" style="shape=partialRectangle;connectable=0;fillColor=none;top=0;left=0;bottom=0;right=0;align=left;spacingLeft=6;fontStyle=5;overflow=hidden;whiteSpace=wrap;html=1;" parent="Jo8jzJtcxEbkA8CnlQCR-155" vertex="1">
          <mxGeometry x="50.75" width="134" height="30" as="geometry">
            <mxRectangle width="134" height="30" as="alternateBounds" />
          </mxGeometry>
        </mxCell>
        <mxCell id="Jo8jzJtcxEbkA8CnlQCR-158" value="" style="shape=tableRow;horizontal=0;startSize=0;swimlaneHead=0;swimlaneBody=0;fillColor=none;collapsible=0;dropTarget=0;points=[[0,0.5],[1,0.5]];portConstraint=eastwest;top=0;left=0;right=0;bottom=0;" parent="Jo8jzJtcxEbkA8CnlQCR-154" vertex="1">
          <mxGeometry y="60" width="184.75" height="30" as="geometry" />
        </mxCell>
        <mxCell id="Jo8jzJtcxEbkA8CnlQCR-159" value="U1" style="shape=partialRectangle;connectable=0;fillColor=none;top=0;left=0;bottom=0;right=0;editable=1;overflow=hidden;whiteSpace=wrap;html=1;" parent="Jo8jzJtcxEbkA8CnlQCR-158" vertex="1">
          <mxGeometry width="50.75" height="30" as="geometry">
            <mxRectangle width="50.75" height="30" as="alternateBounds" />
          </mxGeometry>
        </mxCell>
        <mxCell id="Jo8jzJtcxEbkA8CnlQCR-160" value="&lt;b&gt;job_title&lt;/b&gt;" style="shape=partialRectangle;connectable=0;fillColor=none;top=0;left=0;bottom=0;right=0;align=left;spacingLeft=6;overflow=hidden;whiteSpace=wrap;html=1;" parent="Jo8jzJtcxEbkA8CnlQCR-158" vertex="1">
          <mxGeometry x="50.75" width="134" height="30" as="geometry">
            <mxRectangle width="134" height="30" as="alternateBounds" />
          </mxGeometry>
        </mxCell>
        <mxCell id="Jo8jzJtcxEbkA8CnlQCR-161" value="" style="shape=tableRow;horizontal=0;startSize=0;swimlaneHead=0;swimlaneBody=0;fillColor=none;collapsible=0;dropTarget=0;points=[[0,0.5],[1,0.5]];portConstraint=eastwest;top=0;left=0;right=0;bottom=0;" parent="Jo8jzJtcxEbkA8CnlQCR-154" vertex="1">
          <mxGeometry y="90" width="184.75" height="30" as="geometry" />
        </mxCell>
        <mxCell id="Jo8jzJtcxEbkA8CnlQCR-162" value="" style="shape=partialRectangle;connectable=0;fillColor=none;top=0;left=0;bottom=0;right=0;editable=1;overflow=hidden;whiteSpace=wrap;html=1;" parent="Jo8jzJtcxEbkA8CnlQCR-161" vertex="1">
          <mxGeometry width="50.75" height="30" as="geometry">
            <mxRectangle width="50.75" height="30" as="alternateBounds" />
          </mxGeometry>
        </mxCell>
        <mxCell id="Jo8jzJtcxEbkA8CnlQCR-163" value="&lt;b&gt;job_description&lt;/b&gt;" style="shape=partialRectangle;connectable=0;fillColor=none;top=0;left=0;bottom=0;right=0;align=left;spacingLeft=6;overflow=hidden;whiteSpace=wrap;html=1;" parent="Jo8jzJtcxEbkA8CnlQCR-161" vertex="1">
          <mxGeometry x="50.75" width="134" height="30" as="geometry">
            <mxRectangle width="134" height="30" as="alternateBounds" />
          </mxGeometry>
        </mxCell>
        <mxCell id="Jo8jzJtcxEbkA8CnlQCR-164" value="" style="shape=tableRow;horizontal=0;startSize=0;swimlaneHead=0;swimlaneBody=0;fillColor=none;collapsible=0;dropTarget=0;points=[[0,0.5],[1,0.5]];portConstraint=eastwest;top=0;left=0;right=0;bottom=0;" parent="Jo8jzJtcxEbkA8CnlQCR-154" vertex="1">
          <mxGeometry y="120" width="184.75" height="30" as="geometry" />
        </mxCell>
        <mxCell id="Jo8jzJtcxEbkA8CnlQCR-165" value="U1" style="shape=partialRectangle;connectable=0;fillColor=none;top=0;left=0;bottom=0;right=0;editable=1;overflow=hidden;whiteSpace=wrap;html=1;" parent="Jo8jzJtcxEbkA8CnlQCR-164" vertex="1">
          <mxGeometry width="50.75" height="30" as="geometry">
            <mxRectangle width="50.75" height="30" as="alternateBounds" />
          </mxGeometry>
        </mxCell>
        <mxCell id="Jo8jzJtcxEbkA8CnlQCR-166" value="&lt;b&gt;job_type&lt;/b&gt;" style="shape=partialRectangle;connectable=0;fillColor=none;top=0;left=0;bottom=0;right=0;align=left;spacingLeft=6;overflow=hidden;whiteSpace=wrap;html=1;" parent="Jo8jzJtcxEbkA8CnlQCR-164" vertex="1">
          <mxGeometry x="50.75" width="134" height="30" as="geometry">
            <mxRectangle width="134" height="30" as="alternateBounds" />
          </mxGeometry>
        </mxCell>
        <mxCell id="Jo8jzJtcxEbkA8CnlQCR-167" value="" style="shape=tableRow;horizontal=0;startSize=0;swimlaneHead=0;swimlaneBody=0;fillColor=none;collapsible=0;dropTarget=0;points=[[0,0.5],[1,0.5]];portConstraint=eastwest;top=0;left=0;right=0;bottom=0;" parent="Jo8jzJtcxEbkA8CnlQCR-154" vertex="1">
          <mxGeometry y="150" width="184.75" height="30" as="geometry" />
        </mxCell>
        <mxCell id="Jo8jzJtcxEbkA8CnlQCR-168" value="" style="shape=partialRectangle;connectable=0;fillColor=none;top=0;left=0;bottom=0;right=0;editable=1;overflow=hidden;whiteSpace=wrap;html=1;" parent="Jo8jzJtcxEbkA8CnlQCR-167" vertex="1">
          <mxGeometry width="50.75" height="30" as="geometry">
            <mxRectangle width="50.75" height="30" as="alternateBounds" />
          </mxGeometry>
        </mxCell>
        <mxCell id="Jo8jzJtcxEbkA8CnlQCR-169" value="job_duration" style="shape=partialRectangle;connectable=0;fillColor=none;top=0;left=0;bottom=0;right=0;align=left;spacingLeft=6;overflow=hidden;whiteSpace=wrap;html=1;" parent="Jo8jzJtcxEbkA8CnlQCR-167" vertex="1">
          <mxGeometry x="50.75" width="134" height="30" as="geometry">
            <mxRectangle width="134" height="30" as="alternateBounds" />
          </mxGeometry>
        </mxCell>
        <mxCell id="Jo8jzJtcxEbkA8CnlQCR-170" value="" style="shape=tableRow;horizontal=0;startSize=0;swimlaneHead=0;swimlaneBody=0;fillColor=none;collapsible=0;dropTarget=0;points=[[0,0.5],[1,0.5]];portConstraint=eastwest;top=0;left=0;right=0;bottom=0;" parent="Jo8jzJtcxEbkA8CnlQCR-154" vertex="1">
          <mxGeometry y="180" width="184.75" height="30" as="geometry" />
        </mxCell>
        <mxCell id="Jo8jzJtcxEbkA8CnlQCR-171" value="" style="shape=partialRectangle;connectable=0;fillColor=none;top=0;left=0;bottom=0;right=0;editable=1;overflow=hidden;whiteSpace=wrap;html=1;" parent="Jo8jzJtcxEbkA8CnlQCR-170" vertex="1">
          <mxGeometry width="50.75" height="30" as="geometry">
            <mxRectangle width="50.75" height="30" as="alternateBounds" />
          </mxGeometry>
        </mxCell>
        <mxCell id="Jo8jzJtcxEbkA8CnlQCR-172" value="&lt;b&gt;job_hours_per_week&lt;/b&gt;" style="shape=partialRectangle;connectable=0;fillColor=none;top=0;left=0;bottom=0;right=0;align=left;spacingLeft=6;overflow=hidden;whiteSpace=wrap;html=1;" parent="Jo8jzJtcxEbkA8CnlQCR-170" vertex="1">
          <mxGeometry x="50.75" width="134" height="30" as="geometry">
            <mxRectangle width="134" height="30" as="alternateBounds" />
          </mxGeometry>
        </mxCell>
        <mxCell id="Jo8jzJtcxEbkA8CnlQCR-173" value="" style="shape=tableRow;horizontal=0;startSize=0;swimlaneHead=0;swimlaneBody=0;fillColor=none;collapsible=0;dropTarget=0;points=[[0,0.5],[1,0.5]];portConstraint=eastwest;top=0;left=0;right=0;bottom=0;" parent="Jo8jzJtcxEbkA8CnlQCR-154" vertex="1">
          <mxGeometry y="210" width="184.75" height="30" as="geometry" />
        </mxCell>
        <mxCell id="Jo8jzJtcxEbkA8CnlQCR-174" value="" style="shape=partialRectangle;connectable=0;fillColor=none;top=0;left=0;bottom=0;right=0;editable=1;overflow=hidden;whiteSpace=wrap;html=1;" parent="Jo8jzJtcxEbkA8CnlQCR-173" vertex="1">
          <mxGeometry width="50.75" height="30" as="geometry">
            <mxRectangle width="50.75" height="30" as="alternateBounds" />
          </mxGeometry>
        </mxCell>
        <mxCell id="Jo8jzJtcxEbkA8CnlQCR-175" value="&lt;b&gt;job_salary&lt;/b&gt;" style="shape=partialRectangle;connectable=0;fillColor=none;top=0;left=0;bottom=0;right=0;align=left;spacingLeft=6;overflow=hidden;whiteSpace=wrap;html=1;" parent="Jo8jzJtcxEbkA8CnlQCR-173" vertex="1">
          <mxGeometry x="50.75" width="134" height="30" as="geometry">
            <mxRectangle width="134" height="30" as="alternateBounds" />
          </mxGeometry>
        </mxCell>
        <mxCell id="Jo8jzJtcxEbkA8CnlQCR-176" value="" style="shape=tableRow;horizontal=0;startSize=0;swimlaneHead=0;swimlaneBody=0;fillColor=none;collapsible=0;dropTarget=0;points=[[0,0.5],[1,0.5]];portConstraint=eastwest;top=0;left=0;right=0;bottom=0;" parent="Jo8jzJtcxEbkA8CnlQCR-154" vertex="1">
          <mxGeometry y="240" width="184.75" height="30" as="geometry" />
        </mxCell>
        <mxCell id="Jo8jzJtcxEbkA8CnlQCR-177" value="FK1,U1" style="shape=partialRectangle;connectable=0;fillColor=none;top=0;left=0;bottom=0;right=0;editable=1;overflow=hidden;whiteSpace=wrap;html=1;" parent="Jo8jzJtcxEbkA8CnlQCR-176" vertex="1">
          <mxGeometry width="50.75" height="30" as="geometry">
            <mxRectangle width="50.75" height="30" as="alternateBounds" />
          </mxGeometry>
        </mxCell>
        <mxCell id="Jo8jzJtcxEbkA8CnlQCR-178" value="&lt;b&gt;job_employer_id&lt;/b&gt;" style="shape=partialRectangle;connectable=0;fillColor=none;top=0;left=0;bottom=0;right=0;align=left;spacingLeft=6;overflow=hidden;whiteSpace=wrap;html=1;" parent="Jo8jzJtcxEbkA8CnlQCR-176" vertex="1">
          <mxGeometry x="50.75" width="134" height="30" as="geometry">
            <mxRectangle width="134" height="30" as="alternateBounds" />
          </mxGeometry>
        </mxCell>
        <mxCell id="Jo8jzJtcxEbkA8CnlQCR-179" style="edgeStyle=none;curved=0;rounded=0;orthogonalLoop=1;jettySize=auto;html=1;fontSize=12;startSize=8;endSize=8;entryX=0.996;entryY=0.733;entryDx=0;entryDy=0;entryPerimeter=0;" parent="1" source="Jo8jzJtcxEbkA8CnlQCR-176" target="Jo8jzJtcxEbkA8CnlQCR-59" edge="1">
          <mxGeometry relative="1" as="geometry">
            <Array as="points">
              <mxPoint x="926" y="-398" />
              <mxPoint x="930" y="-125" />
            </Array>
          </mxGeometry>
        </mxCell>
        <mxCell id="Jo8jzJtcxEbkA8CnlQCR-180" value="employers_events" style="shape=table;startSize=30;container=1;collapsible=1;childLayout=tableLayout;fixedRows=1;rowLines=0;fontStyle=1;align=center;resizeLast=1;html=1;whiteSpace=wrap;" parent="1" vertex="1">
          <mxGeometry x="645" y="-355" width="180" height="90" as="geometry" />
        </mxCell>
        <mxCell id="Jo8jzJtcxEbkA8CnlQCR-181" value="" style="shape=tableRow;horizontal=0;startSize=0;swimlaneHead=0;swimlaneBody=0;fillColor=none;collapsible=0;dropTarget=0;points=[[0,0.5],[1,0.5]];portConstraint=eastwest;top=0;left=0;right=0;bottom=0;html=1;" parent="Jo8jzJtcxEbkA8CnlQCR-180" vertex="1">
          <mxGeometry y="30" width="180" height="30" as="geometry" />
        </mxCell>
        <mxCell id="Jo8jzJtcxEbkA8CnlQCR-182" value="PK,FK1" style="shape=partialRectangle;connectable=0;fillColor=none;top=0;left=0;bottom=0;right=0;fontStyle=1;overflow=hidden;html=1;whiteSpace=wrap;" parent="Jo8jzJtcxEbkA8CnlQCR-181" vertex="1">
          <mxGeometry width="60" height="30" as="geometry">
            <mxRectangle width="60" height="30" as="alternateBounds" />
          </mxGeometry>
        </mxCell>
        <mxCell id="Jo8jzJtcxEbkA8CnlQCR-183" value="employee_id" style="shape=partialRectangle;connectable=0;fillColor=none;top=0;left=0;bottom=0;right=0;align=left;spacingLeft=6;fontStyle=5;overflow=hidden;html=1;whiteSpace=wrap;" parent="Jo8jzJtcxEbkA8CnlQCR-181" vertex="1">
          <mxGeometry x="60" width="120" height="30" as="geometry">
            <mxRectangle width="120" height="30" as="alternateBounds" />
          </mxGeometry>
        </mxCell>
        <mxCell id="Jo8jzJtcxEbkA8CnlQCR-184" value="" style="shape=tableRow;horizontal=0;startSize=0;swimlaneHead=0;swimlaneBody=0;fillColor=none;collapsible=0;dropTarget=0;points=[[0,0.5],[1,0.5]];portConstraint=eastwest;top=0;left=0;right=0;bottom=1;html=1;" parent="Jo8jzJtcxEbkA8CnlQCR-180" vertex="1">
          <mxGeometry y="60" width="180" height="30" as="geometry" />
        </mxCell>
        <mxCell id="Jo8jzJtcxEbkA8CnlQCR-185" value="PK,FK2" style="shape=partialRectangle;connectable=0;fillColor=none;top=0;left=0;bottom=0;right=0;fontStyle=1;overflow=hidden;html=1;whiteSpace=wrap;" parent="Jo8jzJtcxEbkA8CnlQCR-184" vertex="1">
          <mxGeometry width="60" height="30" as="geometry">
            <mxRectangle width="60" height="30" as="alternateBounds" />
          </mxGeometry>
        </mxCell>
        <mxCell id="Jo8jzJtcxEbkA8CnlQCR-186" value="event_id" style="shape=partialRectangle;connectable=0;fillColor=none;top=0;left=0;bottom=0;right=0;align=left;spacingLeft=6;fontStyle=5;overflow=hidden;html=1;whiteSpace=wrap;" parent="Jo8jzJtcxEbkA8CnlQCR-184" vertex="1">
          <mxGeometry x="60" width="120" height="30" as="geometry">
            <mxRectangle width="120" height="30" as="alternateBounds" />
          </mxGeometry>
        </mxCell>
        <mxCell id="Jo8jzJtcxEbkA8CnlQCR-193" style="edgeStyle=none;curved=0;rounded=0;orthogonalLoop=1;jettySize=auto;html=1;exitX=1;exitY=0.5;exitDx=0;exitDy=0;entryX=1.017;entryY=0.167;entryDx=0;entryDy=0;entryPerimeter=0;fontSize=12;startSize=8;endSize=8;" parent="1" source="Jo8jzJtcxEbkA8CnlQCR-181" target="Jo8jzJtcxEbkA8CnlQCR-59" edge="1">
          <mxGeometry relative="1" as="geometry">
            <Array as="points">
              <mxPoint x="854" y="-310" />
              <mxPoint x="857" y="-144" />
            </Array>
          </mxGeometry>
        </mxCell>
        <mxCell id="Jo8jzJtcxEbkA8CnlQCR-194" style="edgeStyle=none;curved=0;rounded=0;orthogonalLoop=1;jettySize=auto;html=1;entryX=0;entryY=0.733;entryDx=0;entryDy=0;entryPerimeter=0;fontSize=12;startSize=8;endSize=8;" parent="1" source="Jo8jzJtcxEbkA8CnlQCR-119" target="Jo8jzJtcxEbkA8CnlQCR-155" edge="1">
          <mxGeometry relative="1" as="geometry">
            <Array as="points">
              <mxPoint x="474" y="-136" />
              <mxPoint x="474" y="-214" />
              <mxPoint x="613" y="-214" />
              <mxPoint x="613" y="-604" />
            </Array>
          </mxGeometry>
        </mxCell>
        <mxCell id="Jo8jzJtcxEbkA8CnlQCR-195" style="edgeStyle=none;curved=0;rounded=0;orthogonalLoop=1;jettySize=auto;html=1;entryX=1;entryY=0.5;entryDx=0;entryDy=0;fontSize=12;startSize=8;endSize=8;" parent="1" source="Jo8jzJtcxEbkA8CnlQCR-184" target="Jo8jzJtcxEbkA8CnlQCR-40" edge="1">
          <mxGeometry relative="1" as="geometry">
            <Array as="points">
              <mxPoint x="622" y="-280" />
              <mxPoint x="622" y="-408" />
            </Array>
          </mxGeometry>
        </mxCell>
        <mxCell id="Jo8jzJtcxEbkA8CnlQCR-196" value="students_majors" style="shape=table;startSize=30;container=1;collapsible=1;childLayout=tableLayout;fixedRows=1;rowLines=0;fontStyle=1;align=center;resizeLast=1;html=1;whiteSpace=wrap;" parent="1" vertex="1">
          <mxGeometry x="-56" y="-839" width="246.75" height="120" as="geometry" />
        </mxCell>
        <mxCell id="Jo8jzJtcxEbkA8CnlQCR-197" value="" style="shape=tableRow;horizontal=0;startSize=0;swimlaneHead=0;swimlaneBody=0;fillColor=none;collapsible=0;dropTarget=0;points=[[0,0.5],[1,0.5]];portConstraint=eastwest;top=0;left=0;right=0;bottom=0;html=1;" parent="Jo8jzJtcxEbkA8CnlQCR-196" vertex="1">
          <mxGeometry y="30" width="246.75" height="30" as="geometry" />
        </mxCell>
        <mxCell id="Jo8jzJtcxEbkA8CnlQCR-198" value="PK,FK1" style="shape=partialRectangle;connectable=0;fillColor=none;top=0;left=0;bottom=0;right=0;fontStyle=1;overflow=hidden;html=1;whiteSpace=wrap;" parent="Jo8jzJtcxEbkA8CnlQCR-197" vertex="1">
          <mxGeometry width="60" height="30" as="geometry">
            <mxRectangle width="60" height="30" as="alternateBounds" />
          </mxGeometry>
        </mxCell>
        <mxCell id="Jo8jzJtcxEbkA8CnlQCR-199" value="student_id" style="shape=partialRectangle;connectable=0;fillColor=none;top=0;left=0;bottom=0;right=0;align=left;spacingLeft=6;fontStyle=5;overflow=hidden;html=1;whiteSpace=wrap;" parent="Jo8jzJtcxEbkA8CnlQCR-197" vertex="1">
          <mxGeometry x="60" width="186.75" height="30" as="geometry">
            <mxRectangle width="186.75" height="30" as="alternateBounds" />
          </mxGeometry>
        </mxCell>
        <mxCell id="Jo8jzJtcxEbkA8CnlQCR-200" value="" style="shape=tableRow;horizontal=0;startSize=0;swimlaneHead=0;swimlaneBody=0;fillColor=none;collapsible=0;dropTarget=0;points=[[0,0.5],[1,0.5]];portConstraint=eastwest;top=0;left=0;right=0;bottom=1;html=1;" parent="Jo8jzJtcxEbkA8CnlQCR-196" vertex="1">
          <mxGeometry y="60" width="246.75" height="30" as="geometry" />
        </mxCell>
        <mxCell id="Jo8jzJtcxEbkA8CnlQCR-201" value="PK,FK2" style="shape=partialRectangle;connectable=0;fillColor=none;top=0;left=0;bottom=0;right=0;fontStyle=1;overflow=hidden;html=1;whiteSpace=wrap;" parent="Jo8jzJtcxEbkA8CnlQCR-200" vertex="1">
          <mxGeometry width="60" height="30" as="geometry">
            <mxRectangle width="60" height="30" as="alternateBounds" />
          </mxGeometry>
        </mxCell>
        <mxCell id="Jo8jzJtcxEbkA8CnlQCR-202" value="major_id" style="shape=partialRectangle;connectable=0;fillColor=none;top=0;left=0;bottom=0;right=0;align=left;spacingLeft=6;fontStyle=5;overflow=hidden;html=1;whiteSpace=wrap;" parent="Jo8jzJtcxEbkA8CnlQCR-200" vertex="1">
          <mxGeometry x="60" width="186.75" height="30" as="geometry">
            <mxRectangle width="186.75" height="30" as="alternateBounds" />
          </mxGeometry>
        </mxCell>
        <mxCell id="Jo8jzJtcxEbkA8CnlQCR-206" value="" style="shape=tableRow;horizontal=0;startSize=0;swimlaneHead=0;swimlaneBody=0;fillColor=none;collapsible=0;dropTarget=0;points=[[0,0.5],[1,0.5]];portConstraint=eastwest;top=0;left=0;right=0;bottom=0;html=1;" parent="Jo8jzJtcxEbkA8CnlQCR-196" vertex="1">
          <mxGeometry y="90" width="246.75" height="30" as="geometry" />
        </mxCell>
        <mxCell id="Jo8jzJtcxEbkA8CnlQCR-207" value="" style="shape=partialRectangle;connectable=0;fillColor=none;top=0;left=0;bottom=0;right=0;editable=1;overflow=hidden;html=1;whiteSpace=wrap;" parent="Jo8jzJtcxEbkA8CnlQCR-206" vertex="1">
          <mxGeometry width="60" height="30" as="geometry">
            <mxRectangle width="60" height="30" as="alternateBounds" />
          </mxGeometry>
        </mxCell>
        <mxCell id="Jo8jzJtcxEbkA8CnlQCR-208" value="student_major_graduation_date" style="shape=partialRectangle;connectable=0;fillColor=none;top=0;left=0;bottom=0;right=0;align=left;spacingLeft=6;overflow=hidden;html=1;whiteSpace=wrap;" parent="Jo8jzJtcxEbkA8CnlQCR-206" vertex="1">
          <mxGeometry x="60" width="186.75" height="30" as="geometry">
            <mxRectangle width="186.75" height="30" as="alternateBounds" />
          </mxGeometry>
        </mxCell>
        <mxCell id="Jo8jzJtcxEbkA8CnlQCR-209" value="majors" style="shape=table;startSize=30;container=1;collapsible=1;childLayout=tableLayout;fixedRows=1;rowLines=0;fontStyle=1;align=center;resizeLast=1;html=1;" parent="1" vertex="1">
          <mxGeometry x="261" y="-852" width="180" height="90" as="geometry" />
        </mxCell>
        <mxCell id="Jo8jzJtcxEbkA8CnlQCR-210" value="" style="shape=tableRow;horizontal=0;startSize=0;swimlaneHead=0;swimlaneBody=0;fillColor=none;collapsible=0;dropTarget=0;points=[[0,0.5],[1,0.5]];portConstraint=eastwest;top=0;left=0;right=0;bottom=1;" parent="Jo8jzJtcxEbkA8CnlQCR-209" vertex="1">
          <mxGeometry y="30" width="180" height="30" as="geometry" />
        </mxCell>
        <mxCell id="Jo8jzJtcxEbkA8CnlQCR-211" value="PK" style="shape=partialRectangle;connectable=0;fillColor=none;top=0;left=0;bottom=0;right=0;fontStyle=1;overflow=hidden;whiteSpace=wrap;html=1;" parent="Jo8jzJtcxEbkA8CnlQCR-210" vertex="1">
          <mxGeometry width="30" height="30" as="geometry">
            <mxRectangle width="30" height="30" as="alternateBounds" />
          </mxGeometry>
        </mxCell>
        <mxCell id="Jo8jzJtcxEbkA8CnlQCR-212" value="major_id" style="shape=partialRectangle;connectable=0;fillColor=none;top=0;left=0;bottom=0;right=0;align=left;spacingLeft=6;fontStyle=5;overflow=hidden;whiteSpace=wrap;html=1;" parent="Jo8jzJtcxEbkA8CnlQCR-210" vertex="1">
          <mxGeometry x="30" width="150" height="30" as="geometry">
            <mxRectangle width="150" height="30" as="alternateBounds" />
          </mxGeometry>
        </mxCell>
        <mxCell id="Jo8jzJtcxEbkA8CnlQCR-213" value="" style="shape=tableRow;horizontal=0;startSize=0;swimlaneHead=0;swimlaneBody=0;fillColor=none;collapsible=0;dropTarget=0;points=[[0,0.5],[1,0.5]];portConstraint=eastwest;top=0;left=0;right=0;bottom=0;" parent="Jo8jzJtcxEbkA8CnlQCR-209" vertex="1">
          <mxGeometry y="60" width="180" height="30" as="geometry" />
        </mxCell>
        <mxCell id="Jo8jzJtcxEbkA8CnlQCR-214" value="U1" style="shape=partialRectangle;connectable=0;fillColor=none;top=0;left=0;bottom=0;right=0;editable=1;overflow=hidden;whiteSpace=wrap;html=1;" parent="Jo8jzJtcxEbkA8CnlQCR-213" vertex="1">
          <mxGeometry width="30" height="30" as="geometry">
            <mxRectangle width="30" height="30" as="alternateBounds" />
          </mxGeometry>
        </mxCell>
        <mxCell id="Jo8jzJtcxEbkA8CnlQCR-215" value="&lt;b&gt;major_name&lt;/b&gt;" style="shape=partialRectangle;connectable=0;fillColor=none;top=0;left=0;bottom=0;right=0;align=left;spacingLeft=6;overflow=hidden;whiteSpace=wrap;html=1;" parent="Jo8jzJtcxEbkA8CnlQCR-213" vertex="1">
          <mxGeometry x="30" width="150" height="30" as="geometry">
            <mxRectangle width="150" height="30" as="alternateBounds" />
          </mxGeometry>
        </mxCell>
        <mxCell id="Jo8jzJtcxEbkA8CnlQCR-222" style="edgeStyle=none;curved=0;rounded=0;orthogonalLoop=1;jettySize=auto;html=1;entryX=1;entryY=0.5;entryDx=0;entryDy=0;fontSize=12;startSize=8;endSize=8;startArrow=classic;startFill=1;endArrow=none;endFill=0;" parent="1" source="Jo8jzJtcxEbkA8CnlQCR-210" target="Jo8jzJtcxEbkA8CnlQCR-200" edge="1">
          <mxGeometry relative="1" as="geometry">
            <Array as="points">
              <mxPoint x="223" y="-807" />
              <mxPoint x="223" y="-764" />
            </Array>
          </mxGeometry>
        </mxCell>
        <mxCell id="Jo8jzJtcxEbkA8CnlQCR-223" style="edgeStyle=none;curved=0;rounded=0;orthogonalLoop=1;jettySize=auto;html=1;fontSize=12;startSize=8;endSize=8;strokeColor=default;" parent="1" source="Jo8jzJtcxEbkA8CnlQCR-197" target="Jo8jzJtcxEbkA8CnlQCR-2" edge="1">
          <mxGeometry relative="1" as="geometry">
            <Array as="points">
              <mxPoint x="-162" y="-790" />
              <mxPoint x="-162" y="-554" />
            </Array>
          </mxGeometry>
        </mxCell>
      </root>
    </mxGraphModel>
  </diagram>
</mxfile>
